<svg xmlns="http://www.w3.org/2000/svg" width="30" height="30" viewBox="0 0 30 30"><defs><style>.a{fill:#989898;}</style></defs><g transform="translate(2.5 1.25)"><path class="a" d="M0,15.611C0,10.77,3.66,5.93,8.159,4.823a2.419,2.419,0,0,1,.562-.066,2.39,2.39,0,0,1,1.463.5,2.2,2.2,0,0,1,.853,1.739c0,5.481.184,6.957.942,7.517.344.254.765.332,1.8.332.45,0,1.02-.016,1.665-.034l.1,0c1.063-.03,2.386-.069,4.12-.069a2.413,2.413,0,0,1,1.838.836,2.209,2.209,0,0,1,.51,1.774A11.073,11.073,0,0,1,0,15.611ZM8.607,6.644c-3.713.914-6.732,4.936-6.732,8.966a9.2,9.2,0,0,0,18.28,1.451.323.323,0,0,0-.081-.268.549.549,0,0,0-.414-.181c-1.749,0-3.071.038-4.134.07H15.5c-.628.019-1.22.037-1.716.037a4.425,4.425,0,0,1-2.923-.7c-1.568-1.161-1.7-3.156-1.7-9.024a.322.322,0,0,0-.135-.263.48.48,0,0,0-.3-.1A.521.521,0,0,0,8.607,6.644Zm6.627,6.1A2.056,2.056,0,0,1,13.3,10.813c-.1-1.653-.309-5.849-.16-9.1A1.782,1.782,0,0,1,14.88,0c.08,0,.159,0,.237,0a10.719,10.719,0,0,1,7.445,3.417c2.2,2.2,3.592,5.085,3.552,7.354a1.8,1.8,0,0,1-1.528,1.757,37.472,37.472,0,0,1-5.444.334C17.561,12.862,16.145,12.8,15.235,12.748ZM15.174,10.7a.174.174,0,0,0,.17.171c.7.04,2.134.109,3.808.109a36.083,36.083,0,0,0,5.088-.3c.007-1.753-1.2-4.141-3-5.943a8.944,8.944,0,0,0-6.2-2.865h-.027C14.874,5.049,15.08,9.107,15.174,10.7Z"/></g></svg>