<svg xmlns="http://www.w3.org/2000/svg" width="30" height="30" viewBox="0 0 30 30"><defs><style>.a{fill:#989898;}</style></defs><g transform="translate(2.5 2.5)"><path class="a" d="M8.063,25.837C3.089,25.837,0,22.753,0,17.79V8.042C0,2.706,2.374,0,7.054,0h2.5a3.809,3.809,0,0,1,3.032,1.518l1.139,1.515a1.936,1.936,0,0,0,1.535.767H18.8c4.827,0,7.076,2.474,7.076,7.785l-.035,6.209c0,4.961-3.086,8.043-8.047,8.043ZM1.875,8.042V17.79c0,3.98,2.2,6.172,6.188,6.172H17.79c3.98,0,6.172-2.191,6.172-6.172L24,11.58c0-4.249-1.458-5.905-5.2-5.905H15.257A3.815,3.815,0,0,1,12.227,4.16L11.085,2.643a1.924,1.924,0,0,0-1.532-.767h-2.5C3.425,1.875,1.875,3.719,1.875,8.042Zm5.6,9.1a.937.937,0,1,1,0-1.874H18.395a.937.937,0,1,1,0,1.874Z"/></g></svg>