<svg xmlns="http://www.w3.org/2000/svg" width="30" height="30" viewBox="0 0 30 30"><defs><style>.a{fill:#989898;}</style></defs><g transform="translate(2.5 2.5)"><path class="a" d="M7.036,25.878C2.827,25.878,0,22.923,0,18.523V8.421C0,4.014,2.827,1.053,7.036,1.053h9.085a.937.937,0,1,1,0,1.874H7.036c-3.134,0-5.16,2.156-5.16,5.493v10.1C1.875,21.9,3.852,24,7.036,24H17.791c3.135,0,5.162-2.151,5.162-5.481v-8.8a.938.938,0,0,1,1.875,0v8.8c0,4.4-2.827,7.355-7.037,7.355ZM5.949,17.31A.939.939,0,0,1,5.778,16L9.52,11.132a.933.933,0,0,1,.626-.358.919.919,0,0,1,.7.194l3.525,2.769,3.085-3.979A.937.937,0,1,1,18.933,10.9L15.271,15.63a.939.939,0,0,1-1.321.164l-3.522-2.767L7.264,17.137a.939.939,0,0,1-1.315.173ZM19.119,3.34a3.34,3.34,0,1,1,3.34,3.341A3.344,3.344,0,0,1,19.119,3.34Zm1.875,0A1.465,1.465,0,1,0,22.46,1.875,1.467,1.467,0,0,0,20.995,3.34Z" transform="translate(0 0)"/></g></svg>