<svg xmlns="http://www.w3.org/2000/svg" width="30" height="30" viewBox="0 0 30 30"><defs><style>.a{fill:#989898;}</style></defs><g transform="translate(2.5 3.75)"><path class="a" d="M16.119,24.374a2.5,2.5,0,0,1-2.138-1.2L9.135,15.308,1.19,10.34a2.536,2.536,0,0,1,.629-4.581L21.139.1a2.527,2.527,0,0,1,3.13,3.152L18.552,22.56a2.5,2.5,0,0,1-2.088,1.791A2.737,2.737,0,0,1,16.119,24.374Zm.86-17.908a.937.937,0,0,1,.667,1.6l-6.64,6.709,4.572,7.416a.613.613,0,0,0,.545.31.7.7,0,0,0,.093-.006.631.631,0,0,0,.54-.464L22.472,2.721a.658.658,0,0,0-.62-.848.684.684,0,0,0-.186.027L2.346,7.558a.641.641,0,0,0-.463.541.648.648,0,0,0,.3.651l7.5,4.691,6.627-6.7A.93.93,0,0,1,16.979,6.466Z" transform="translate(0)"/></g></svg>