<svg xmlns="http://www.w3.org/2000/svg" width="13" height="13" viewBox="0 0 13 13"><defs><style>.a{fill:#ec8105;}</style></defs><g transform="translate(1.083 1.083)"><path class="a" d="M3.838,10.765a.435.435,0,0,1-.193-.363V7.794a.3.3,0,0,1,.3-.306l2.63.008a.3.3,0,0,1,.3.306V9.282a.433.433,0,0,1-.246.392L4.237,10.795a.414.414,0,0,1-.174.039A.408.408,0,0,1,3.838,10.765Zm2.9-4.241-2.95-.009a.32.32,0,0,1-.236-.106L.311,2.848A1.21,1.21,0,0,1,0,2.035V1.188A1.171,1.171,0,0,1,1.153,0H9.681a1.17,1.17,0,0,1,1.152,1.188v.83a1.205,1.205,0,0,1-.345.847L6.964,6.428a.315.315,0,0,1-.225.1Z"/></g></svg>