<svg xmlns="http://www.w3.org/2000/svg" width="30" height="30" viewBox="0 0 30 30"><defs><style>.a{fill:#989898;}</style></defs><g transform="translate(2.5 1.25)"><path class="a" d="M20.347,26.882H17.941A2.466,2.466,0,0,1,15.5,24.42V20.575a.847.847,0,0,0-.855-.836H11.038a.843.843,0,0,0-.843.836v3.833a.928.928,0,0,1-.038.269,2.478,2.478,0,0,1-2.474,2.2H5.279A5.263,5.263,0,0,1,0,21.646V10.754A3.948,3.948,0,0,1,1.574,7.625L9.743,1.068a4.891,4.891,0,0,1,6.1,0l8.228,6.562a3.942,3.942,0,0,1,1.555,3.1V21.646A5.263,5.263,0,0,1,20.347,26.882Zm-9.314-9.018h3.613a2.724,2.724,0,0,1,2.73,2.711V24.42a.59.59,0,0,0,.587.586h2.383a3.386,3.386,0,0,0,3.4-3.36v-10.9a2.09,2.09,0,0,0-.834-1.636L14.675,2.532a3.02,3.02,0,0,0-3.763,0L2.726,9.1a2.105,2.105,0,0,0-.85,1.66V21.646a3.386,3.386,0,0,0,3.4,3.36H7.684a.607.607,0,0,0,.614-.6.957.957,0,0,1,.024-.214V20.575A2.727,2.727,0,0,1,11.033,17.864Z" transform="translate(0 0)"/></g></svg>