<svg xmlns="http://www.w3.org/2000/svg" width="30" height="30" viewBox="0 0 30 30"><defs><style>.a{fill:#989898;}</style></defs><g transform="translate(2.501 2.501)"><path class="a" d="M11.267,25.9a3.333,3.333,0,0,1-3.33-3.329,1.347,1.347,0,0,0-.189-.665,1.461,1.461,0,0,0-.88-.685,1.4,1.4,0,0,0-.363-.047,1.46,1.46,0,0,0-.727.194,3.412,3.412,0,0,1-1.655.431,3.314,3.314,0,0,1-.9-.124,3.355,3.355,0,0,1-2-1.587L.444,18.741A3.323,3.323,0,0,1,1.656,14.21a1.455,1.455,0,0,0,0-2.519A3.337,3.337,0,0,1,.442,7.151L1.29,5.759A3.326,3.326,0,0,1,5.817,4.552a1.375,1.375,0,0,0,.691.2A1.455,1.455,0,0,0,7.95,3.315,3.315,3.315,0,0,1,11.267,0h1.566a3.324,3.324,0,0,1,3.329,3.423,1.325,1.325,0,0,0,.189.638,1.446,1.446,0,0,0,.884.673,1.547,1.547,0,0,0,.365.045,1.427,1.427,0,0,0,.73-.2A3.34,3.34,0,0,1,22.879,5.8l.778,1.349a1.027,1.027,0,0,1,.053.107,3.342,3.342,0,0,1-1.262,4.431,1.417,1.417,0,0,0-.53.527,1.475,1.475,0,0,0-.151,1.1,1.428,1.428,0,0,0,.675.879,3.318,3.318,0,0,1,1.213,4.546l-.83,1.383a3.33,3.33,0,0,1-4.534,1.2,1.479,1.479,0,0,0-.7-.195h-.007a1.458,1.458,0,0,0-1,.423,1.425,1.425,0,0,0-.422,1.026,3.341,3.341,0,0,1-3.33,3.321Zm-3.913-6.49a3.346,3.346,0,0,1,2.014,1.551,3.212,3.212,0,0,1,.444,1.6,1.461,1.461,0,0,0,1.455,1.464h1.566a1.457,1.457,0,0,0,1.455-1.447,3.32,3.32,0,0,1,3.25-3.324h.084a3.427,3.427,0,0,1,1.6.442,1.464,1.464,0,0,0,1.988-.526l.83-1.384a1.444,1.444,0,0,0-.533-1.964A3.308,3.308,0,0,1,19.957,13.8a3.343,3.343,0,0,1,.339-2.525,3.3,3.3,0,0,1,1.214-1.21,1.455,1.455,0,0,0,.522-1.973.606.606,0,0,1-.044-.086l-.732-1.27A1.457,1.457,0,0,0,19.272,6.2a3.269,3.269,0,0,1-1.663.457,3.345,3.345,0,0,1-2.872-1.644,3.2,3.2,0,0,1-.449-1.608,1.5,1.5,0,0,0-.411-1.092,1.458,1.458,0,0,0-1.044-.439H11.267a1.444,1.444,0,0,0-1.024.423,1.427,1.427,0,0,0-.419,1.025A3.353,3.353,0,0,1,6.5,6.623,3.239,3.239,0,0,1,4.872,6.17a1.418,1.418,0,0,0-.7-.185,1.462,1.462,0,0,0-1.267.73L2.056,8.107a1.446,1.446,0,0,0,.54,1.962,3.328,3.328,0,0,1,0,5.765A1.444,1.444,0,0,0,2.067,17.8l.789,1.36a1.464,1.464,0,0,0,1.992.581A3.267,3.267,0,0,1,6.5,19.3,3.326,3.326,0,0,1,7.354,19.411Zm.469-6.46a4.232,4.232,0,1,1,4.232,4.231A4.237,4.237,0,0,1,7.824,12.951Zm1.875,0a2.357,2.357,0,1,0,2.357-2.358A2.359,2.359,0,0,0,9.7,12.951Z" transform="translate(0 0)"/></g></svg>