<svg xmlns="http://www.w3.org/2000/svg" width="30" height="30" viewBox="0 0 30 30"><defs><style>.a{fill:#989898;}</style></defs><g transform="translate(5 2.5)"><path class="a" d="M0,20.217c0-4.121,5.651-4.6,9.9-4.6,2.448,0,9.9,0,9.9,4.622,0,4.119-5.65,4.6-9.9,4.6C7.452,24.838,0,24.838,0,20.217Zm1.875,0c0,1.822,2.7,2.746,8.026,2.746s8.024-.916,8.024-2.721c0-1.823-2.7-2.746-8.024-2.746S1.875,18.412,1.875,20.217Zm7.986-6.944A6.637,6.637,0,0,1,9.9,0a6.637,6.637,0,0,1,0,13.274ZM5.048,6.637A4.842,4.842,0,0,0,9.865,11.49l.036.893V11.49A4.852,4.852,0,1,0,5.048,6.637Z"/></g></svg>